<?xml version="1.0" standalone="no"?>
<!DOCTYPE svg PUBLIC "-//W3C//DTD SVG 20010904//EN"
 "http://www.w3.org/TR/2001/REC-SVG-20010904/DTD/svg10.dtd">
<svg version="1.0" xmlns="http://www.w3.org/2000/svg"
 width="1024.000000pt" height="1024.000000pt" viewBox="0 0 1024.000000 1024.000000"
 preserveAspectRatio="xMidYMid meet">

<g transform="translate(0.000000,1024.000000) scale(0.100000,-0.100000)"
fill="#000000" stroke="none">
<path d="M4935 7924 c-16 -2 -77 -9 -135 -15 -356 -38 -768 -171 -1084 -351
-254 -144 -424 -275 -642 -492 -231 -232 -365 -414 -513 -697 -295 -566 -388
-1231 -260 -1867 50 -250 125 -466 245 -708 223 -449 551 -826 959 -1099 150
-100 351 -210 503 -275 489 -210 1059 -278 1578 -190 615 105 1214 423 1605
851 46 50 91 99 99 108 32 35 167 215 198 264 18 29 39 60 47 69 8 9 22 32 31
50 9 18 27 47 39 63 21 30 95 177 155 310 51 113 137 379 169 525 48 215 64
406 58 675 -5 263 -21 388 -77 610 -126 504 -371 935 -740 1306 -190 191 -270
257 -465 387 -380 255 -853 423 -1325 472 -88 9 -376 11 -445 4z m321 -1044
c547 -44 1012 -297 1366 -741 149 -187 281 -478 340 -749 20 -93 23 -132 22
-335 0 -211 -2 -241 -27 -358 -27 -126 -82 -314 -97 -330 -4 -4 -10 17 -14 47
-15 129 -120 381 -223 533 -184 274 -438 474 -718 568 -166 56 -174 57 -715
64 -489 7 -507 8 -560 29 -131 52 -232 158 -270 279 -18 59 -20 93 -20 353 0
264 2 294 21 356 17 56 31 77 77 124 33 32 82 68 115 84 142 66 430 98 703 76z
m-1862 -1172 c19 -125 107 -352 188 -488 207 -345 523 -585 873 -662 81 -17
138 -20 570 -23 519 -4 538 -6 647 -61 73 -37 148 -116 189 -199 l34 -70 0
-320 0 -320 -32 -67 c-81 -171 -230 -241 -577 -269 -275 -22 -590 19 -838 107
-40 15 -125 53 -188 85 -539 273 -892 753 -996 1354 -33 188 -20 536 27 720
23 90 82 264 89 260 4 -3 10 -24 14 -47z"/>
</g>
</svg>
